<svg height="512pt" viewBox="0 0 512 512" width="512pt" xmlns="http://www.w3.org/2000/svg"><path d="m439.859375 223.640625c-.160156-39.367187-32.238281-71.34375-71.640625-71.34375-6.371094 0-12.640625.832031-18.71875 2.472656-20.546875-31.335937-55.832031-50.566406-93.5-50.566406-41.660156 0-79.71875 23.234375-98.925781 59.773437-6.8125-2.433593-13.949219-3.664062-21.308594-3.664062-25.4375 0-48.453125 15.292969-58.4375 38.4375-21.421875 6.945312-40.628906 20.511719-54.390625 38.496094-15.003906 19.613281-22.9375 43.066406-22.9375 67.824218 0 22.816407 6.835938 44.765626 19.769531 63.464844 11.445313 16.554688 26.929688 29.582032 45.039063 37.953125-.453125 3.269531-.683594 6.554688-.683594 9.824219 0 39.503906 32.136719 71.640625 71.640625 71.640625 13.910156 0 27.144531-3.898437 38.664063-11.332031 21.105468 22.570312 50.453124 35.378906 81.570312 35.378906 31.703125 0 61.371094-13.183594 82.539062-36.425781 10.878907 8.027343 24.003907 12.378906 37.695313 12.378906 32.109375 0 58.878906-23.816406 63.054687-55.101563 43.699219-16.226562 72.710938-57.695312 72.710938-104.710937 0-46.828125-28.757812-88.121094-72.140625-104.5zm-9.902344 196.542969c-2.964843.957031-5.035156 3.644531-5.199219 6.757812-1.363281 25.785156-22.675781 45.980469-48.523437 45.980469-12.480469 0-24.351563-4.738281-33.421875-13.339844-3.152344-2.992187-8.351562-2.621093-11.054688.78125-18.480468 23.265625-46.089843 36.609375-75.757812 36.609375-28.964844 0-56.160156-12.828125-74.617188-35.195312-2.570312-3.117188-7.300781-3.617188-10.46875-1.105469-10.101562 8.015625-22.253906 12.253906-35.148437 12.253906-31.214844 0-56.609375-25.394531-56.609375-56.609375 0-4.230468.484375-8.496094 1.445312-12.6875.828126-3.613281-1.105468-7.292968-4.550781-8.660156-37.070312-14.722656-61.019531-50.007812-61.019531-89.894531 0-42.933594 28.792969-81.160157 70.019531-92.964844 2.320313-.664063 4.179688-2.402344 5-4.671875 6.929688-19.199219 25.300781-32.09375 45.714844-32.09375 7.578125 0 14.847656 1.703125 21.605469 5.066406 3.78125 1.882813 8.507812.171875 10.21875-3.675781 15.503906-34.929687 50.210937-57.5 88.410156-57.5 34.355469 0 66.421875 18.480469 83.6875 48.234375 1.828125 3.152344 5.65625 4.539062 9.082031 3.285156 6.214844-2.273437 12.757813-3.425781 19.449219-3.425781 31.214844 0 56.609375 25.394531 56.609375 56.609375 0 2.488281-.628906 5.175781.257813 7.570312.792968 2.152344 2.570312 3.851563 4.753906 4.550782 40.152344 12.878906 67.128906 49.882812 67.128906 92.082031 0 42.140625-26.929688 79.128906-67.011719 92.042969zm0 0"/><path d="m416.3125 232.453125h-95.855469c-4.148437 0-7.511719 3.367187-7.511719 7.515625s3.363282 7.515625 7.511719 7.515625h24.214844v86.898437l-48.992187 97.984376c-7.5625 15.128906-22.769532 24.523437-39.679688 24.523437s-32.117188-9.394531-39.679688-24.523437l-48.992187-97.984376v-86.898437h117.730469c4.148437 0 7.511718-3.367187 7.511718-7.515625s-3.363281-7.515625-7.511718-7.515625h-189.371094c-4.152344 0-7.515625 3.367187-7.515625 7.515625 0 .652344.101563 16.203125 9.007813 31.78125 7.710937 13.496094 23.464843 29.394531 55.117187 31.578125v32.828125c0 1.167969.273437 2.316406.792969 3.359375l49.789062 99.574219c10.125 20.25 30.480469 32.832031 53.121094 32.832031s42.996094-12.582031 53.121094-32.832031l49.789062-99.574219c.519532-1.042969.792969-2.191406.792969-3.359375v-32.824219c31.652344-2.1875 47.40625-18.082031 55.117187-31.578125 8.902344-15.582031 9.007813-31.132812 9.007813-31.785156 0-4.148438-3.363281-7.515625-7.515625-7.515625zm-312.257812 15.03125h48.242187v40.777344c-36.375-3.019531-45.796875-27.941407-48.242187-40.777344zm255.648437 40.777344v-40.777344h48.238281c-2.445312 12.851563-11.875 37.757813-48.238281 40.777344zm0 0"/><path d="m239.46875 304.09375c0-4.148438-3.367188-7.515625-7.515625-7.515625s-7.515625 3.367187-7.515625 7.515625c0 4.695312-3.820312 8.515625-8.515625 8.515625s-8.515625-3.820313-8.515625-8.515625c0-4.148438-3.367188-7.515625-7.515625-7.515625s-7.515625 3.367187-7.515625 7.515625c0 12.984375 10.5625 23.546875 23.546875 23.546875s23.546875-10.5625 23.546875-23.546875zm0 0"/><path d="m287.5625 304.09375c0-4.148438-3.363281-7.515625-7.515625-7.515625s-7.515625 3.367187-7.515625 7.515625c0 12.984375 10.5625 23.546875 23.546875 23.546875s23.546875-10.5625 23.546875-23.546875c0-4.148438-3.363281-7.515625-7.515625-7.515625s-7.515625 3.367187-7.515625 7.515625c0 4.695312-3.820312 8.515625-8.515625 8.515625s-8.515625-3.820313-8.515625-8.515625zm0 0"/><path d="m274.734375 386.953125-8.015625 8.015625c-2.9375 2.933594-2.9375 7.691406 0 10.625 1.464844 1.46875 3.390625 2.203125 5.3125 2.203125s3.847656-.734375 5.3125-2.203125l8.019531-8.015625c2.933594-2.933594 2.933594-7.691406 0-10.625-2.9375-2.933594-7.695312-2.933594-10.628906 0zm0 0"/><path d="m234.65625 405.59375c1.464844 1.46875 3.390625 2.203125 5.3125 2.203125s3.847656-.734375 5.3125-2.203125c2.9375-2.933594 2.9375-7.691406 0-10.625l-8.015625-8.015625c-2.933594-2.933594-7.691406-2.933594-10.625 0-2.9375 2.933594-2.9375 7.691406 0 10.625zm0 0"/><path d="m360.203125 79.15625h16.429687l-22.296874 27.867188c-3.863282 4.828124-.296876 12.210937 5.867187 12.210937h32.0625c4.152344 0 7.515625-3.367187 7.515625-7.515625 0-4.152344-3.363281-7.515625-7.515625-7.515625h-16.425781l22.292968-27.867187c3.867188-4.832032.296876-12.210938-5.867187-12.210938h-32.0625c-4.152344 0-7.515625 3.363281-7.515625 7.515625 0 4.148437 3.363281 7.515625 7.515625 7.515625zm0 0"/><path d="m416.3125 47.09375h16.429688l-22.296876 27.867188c-3.863281 4.828124-.296874 12.210937 5.867188 12.210937h32.0625c4.152344 0 7.515625-3.367187 7.515625-7.515625 0-4.152344-3.363281-7.515625-7.515625-7.515625h-16.425781l22.292969-27.871094c3.867187-4.828125.296874-12.207031-5.867188-12.207031h-32.0625c-4.152344 0-7.515625 3.363281-7.515625 7.515625 0 4.148437 3.363281 7.515625 7.515625 7.515625zm0 0"/><path d="m472.421875 15.03125h16.429687l-22.296874 27.867188c-3.863282 4.828124-.296876 12.210937 5.867187 12.210937h32.0625c4.152344 0 7.515625-3.367187 7.515625-7.515625 0-4.152344-3.363281-7.515625-7.515625-7.515625h-16.425781l22.292968-27.871094c3.867188-4.828125.296876-12.207031-5.867187-12.207031h-32.0625c-4.148437 0-7.515625 3.363281-7.515625 7.515625 0 4.148437 3.367188 7.515625 7.515625 7.515625zm0 0"/></svg>